HIERARCHY
ROOT Hips
{
	OFFSET 0.053599 88.859886 3.107447
	CHANNELS 6 Xposition Yposition Zposition Zrotation Yrotation Xrotation 
	JOINT Spine
	{
		OFFSET -0.000000 8.814246 -2.080107
		CHANNELS 3 Zrotation Yrotation Xrotation
		JOINT Spine1
		{
			OFFSET 0.000000 8.844141 0.000000
			CHANNELS 3 Zrotation Yrotation Xrotation
			JOINT Spine2
			{
				OFFSET -0.000000 11.682268 0.000000
				CHANNELS 3 Zrotation Yrotation Xrotation
				JOINT Spine3
				{
					OFFSET 0.000000 11.746700 0.000000
					CHANNELS 3 Zrotation Yrotation Xrotation
					JOINT Neck
					{
						OFFSET -0.000000 17.658264 -0.000000
						CHANNELS 3 Zrotation Yrotation Xrotation
						JOINT Neck1
						{
							OFFSET -0.000000 5.101515 -0.000000
							CHANNELS 3 Zrotation Yrotation Xrotation
							JOINT Head
							{
								OFFSET 0.000000 5.101515 0.000000
								CHANNELS 3 Zrotation Yrotation Xrotation
								JOINT HeadEnd
								{
									OFFSET 0.000000 11.655085 0.000000
									CHANNELS 3 Zrotation Yrotation Xrotation
									End Site
									{
										OFFSET 0.000000 0.000000 0.000000
									}
								}
							}
						}
					}
					JOINT RightShoulder
					{
						OFFSET -2.625389 11.175210 0.000000
						CHANNELS 3 Zrotation Yrotation Xrotation
						JOINT RightArm
						{
							OFFSET -0.000000 10.434715 -0.000000
							CHANNELS 3 Zrotation Yrotation Xrotation
							JOINT RightForeArm
							{
								OFFSET -0.000000 29.628420 0.000000
								CHANNELS 3 Zrotation Yrotation Xrotation
								JOINT RightHand
								{
									OFFSET -0.000000 22.857611 0.000000
									CHANNELS 3 Zrotation Yrotation Xrotation
									JOINT RightHandThumb1
									{
										OFFSET -2.867323 3.959563 2.944291
										CHANNELS 3 Zrotation Yrotation Xrotation
										JOINT RightHandThumb2
										{
											OFFSET 0.000000 3.350399 0.000000
											CHANNELS 3 Zrotation Yrotation Xrotation
											JOINT RightHandThumb3
											{
												OFFSET 0.000000 3.756509 -0.000000
												CHANNELS 3 Zrotation Yrotation Xrotation
												JOINT RightHandThumb4
												{
													OFFSET 0.000000 3.147345 0.000000
													CHANNELS 3 Zrotation Yrotation Xrotation
													End Site
													{
														OFFSET 0.000000 0.000000 0.000000
													}
												}
											}
										}
									}
									JOINT RightHandIndex1
									{
										OFFSET -0.086752 10.030893 2.345280
										CHANNELS 3 Zrotation Yrotation Xrotation
										JOINT RightHandIndex2
										{
											OFFSET -0.000000 4.061090 0.000000
											CHANNELS 3 Zrotation Yrotation Xrotation
											JOINT RightHandIndex3
											{
												OFFSET -0.000000 3.248873 0.000000
												CHANNELS 3 Zrotation Yrotation Xrotation
												JOINT RightHandIndex4
												{
													OFFSET 0.000000 2.639709 -0.000000
													CHANNELS 3 Zrotation Yrotation Xrotation
													End Site
													{
														OFFSET 0.000000 0.000000 0.000000
													}
												}
											}
										}
									}
									JOINT RightHandMiddle1
									{
										OFFSET 0.104102 9.502952 0.006768
										CHANNELS 3 Zrotation Yrotation Xrotation
										JOINT RightHandMiddle2
										{
											OFFSET 0.000000 4.568727 0.000000
											CHANNELS 3 Zrotation Yrotation Xrotation
											JOINT RightHandMiddle3
											{
												OFFSET 0.000000 3.654981 -0.000000
												CHANNELS 3 Zrotation Yrotation Xrotation
												JOINT RightHandMiddle4
												{
													OFFSET -0.000000 2.741236 -0.000000
													CHANNELS 3 Zrotation Yrotation Xrotation
													End Site
													{
														OFFSET 0.000000 0.000000 0.000000
													}
												}
											}
										}
									}
									JOINT RightHandRing1
									{
										OFFSET 0.086752 8.921708 -2.267442
										CHANNELS 3 Zrotation Yrotation Xrotation
										JOINT RightHandRing2
										{
											OFFSET -0.000000 4.061090 0.000000
											CHANNELS 3 Zrotation Yrotation Xrotation
											JOINT RightHandRing3
											{
												OFFSET 0.000000 3.654981 -0.000000
												CHANNELS 3 Zrotation Yrotation Xrotation
												JOINT RightHandRing4
												{
													OFFSET 0.000000 2.741236 -0.000000
													CHANNELS 3 Zrotation Yrotation Xrotation
													End Site
													{
														OFFSET 0.000000 0.000000 0.000000
													}
												}
											}
										}
									}
									JOINT RightHandPinky1
									{
										OFFSET -0.173504 7.976997 -4.467199
										CHANNELS 3 Zrotation Yrotation Xrotation
										JOINT RightHandPinky2
										{
											OFFSET 0.000000 3.350399 -0.000000
											CHANNELS 3 Zrotation Yrotation Xrotation
											JOINT RightHandPinky3
											{
												OFFSET -0.000000 2.842763 0.000000
												CHANNELS 3 Zrotation Yrotation Xrotation
												JOINT RightHandPinky4
												{
													OFFSET -0.000000 2.639709 0.000000
													CHANNELS 3 Zrotation Yrotation Xrotation
													End Site
													{
														OFFSET 0.000000 0.000000 0.000000
													}
												}
											}
										}
									}
									JOINT RightForeArmEnd
									{
										OFFSET 0.000000 0.000000 0.000000
										CHANNELS 3 Zrotation Yrotation Xrotation
										End Site
										{
											OFFSET 0.000000 0.000000 0.000000
										}
									}
								}
								JOINT RightArmEnd
								{
									OFFSET 0.000000 0.000000 0.000000
									CHANNELS 3 Zrotation Yrotation Xrotation
									End Site
									{
										OFFSET 0.000000 0.000000 0.000000
									}
								}
							}
						}
					}
					JOINT LeftShoulder
					{
						OFFSET 2.625389 11.175210 0.000000
						CHANNELS 3 Zrotation Yrotation Xrotation
						JOINT LeftArm
						{
							OFFSET 0.000000 10.813635 -0.000000
							CHANNELS 3 Zrotation Yrotation Xrotation
							JOINT LeftForeArm
							{
								OFFSET 0.000000 28.724781 0.000000
								CHANNELS 3 Zrotation Yrotation Xrotation
								JOINT LeftHand
								{
									OFFSET 0.644384 25.716167 -0.328871
									CHANNELS 3 Zrotation Yrotation Xrotation
									JOINT LeftHandThumb1
									{
										OFFSET 2.867323 3.959563 2.944291
										CHANNELS 3 Zrotation Yrotation Xrotation
										JOINT LeftHandThumb2
										{
											OFFSET 0.000000 3.350399 0.000000
											CHANNELS 3 Zrotation Yrotation Xrotation
											JOINT LeftHandThumb3
											{
												OFFSET -0.000000 3.756509 0.000000
												CHANNELS 3 Zrotation Yrotation Xrotation
												JOINT LeftHandThumb4
												{
													OFFSET -0.000000 3.100000 0.000000
													CHANNELS 3 Zrotation Yrotation Xrotation
													End Site
													{
														OFFSET 0.000000 0.000000 0.000000
													}
												}
											}
										}
									}
									JOINT LeftHandIndex1
									{
										OFFSET 0.086752 10.030893 2.345280
										CHANNELS 3 Zrotation Yrotation Xrotation
										JOINT LeftHandIndex2
										{
											OFFSET -0.000000 4.061090 -0.000000
											CHANNELS 3 Zrotation Yrotation Xrotation
											JOINT LeftHandIndex3
											{
												OFFSET 0.000000 3.248873 -0.000000
												CHANNELS 3 Zrotation Yrotation Xrotation
												JOINT LeftHandIndex4
												{
													OFFSET 0.000000 2.639709 -0.000000
													CHANNELS 3 Zrotation Yrotation Xrotation
													End Site
													{
														OFFSET 0.000000 0.000000 0.000000
													}
												}
											}
										}
									}
									JOINT LeftHandMiddle1
									{
										OFFSET -0.104102 9.502952 0.006768
										CHANNELS 3 Zrotation Yrotation Xrotation
										JOINT LeftHandMiddle2
										{
											OFFSET -0.000000 4.568727 -0.000000
											CHANNELS 3 Zrotation Yrotation Xrotation
											JOINT LeftHandMiddle3
											{
												OFFSET 0.000000 3.654981 0.000000
												CHANNELS 3 Zrotation Yrotation Xrotation
												JOINT LeftHandMiddle4
												{
													OFFSET 0.000000 2.741236 -0.000000
													CHANNELS 3 Zrotation Yrotation Xrotation
													End Site
													{
														OFFSET 0.000000 0.000000 0.000000
													}
												}
											}
										}
									}
									JOINT LeftHandRing1
									{
										OFFSET -0.086752 8.921708 -2.267442
										CHANNELS 3 Zrotation Yrotation Xrotation
										JOINT LeftHandRing2
										{
											OFFSET 0.000000 4.061090 0.000000
											CHANNELS 3 Zrotation Yrotation Xrotation
											JOINT LeftHandRing3
											{
												OFFSET 0.000000 3.654981 0.000000
												CHANNELS 3 Zrotation Yrotation Xrotation
												JOINT LeftHandRing4
												{
													OFFSET 0.000000 2.741236 0.000000
													CHANNELS 3 Zrotation Yrotation Xrotation
													End Site
													{
														OFFSET 0.000000 0.000000 0.000000
													}
												}
											}
										}
									}
									JOINT LeftHandPinky1
									{
										OFFSET 0.173504 7.976997 -4.467199
										CHANNELS 3 Zrotation Yrotation Xrotation
										JOINT LeftHandPinky2
										{
											OFFSET -0.000000 3.350399 -0.000000
											CHANNELS 3 Zrotation Yrotation Xrotation
											JOINT LeftHandPinky3
											{
												OFFSET 0.000000 2.842763 0.000000
												CHANNELS 3 Zrotation Yrotation Xrotation
												JOINT LeftHandPinky4
												{
													OFFSET -0.000000 2.639709 -0.000000
													CHANNELS 3 Zrotation Yrotation Xrotation
													End Site
													{
														OFFSET 0.000000 0.000000 0.000000
													}
												}
											}
										}
									}
									JOINT LeftForeArmEnd
									{
										OFFSET 0.000000 0.000000 0.000000
										CHANNELS 3 Zrotation Yrotation Xrotation
										End Site
										{
											OFFSET 0.000000 0.000000 0.000000
										}
									}
								}
								JOINT LeftArmEnd
								{
									OFFSET 0.000000 0.000000 0.000000
									CHANNELS 3 Zrotation Yrotation Xrotation
									End Site
									{
										OFFSET 0.000000 0.000000 0.000000
									}
								}
							}
						}
					}
				}
			}
		}
	}
	JOINT RightUpLeg
	{
		OFFSET -11.289943 0.000000 0.000000
		CHANNELS 3 Zrotation Yrotation Xrotation
		JOINT RightLeg
		{
			OFFSET 0.000000 -38.200325 0.000000
			CHANNELS 3 Zrotation Yrotation Xrotation
			JOINT RightFoot
			{
				OFFSET -0.000000 -39.900856 -0.000000
				CHANNELS 3 Zrotation Yrotation Xrotation
				JOINT RightToeBase
				{
					OFFSET 0.000000 0.000000 15.261641
					CHANNELS 3 Zrotation Yrotation Xrotation
					JOINT RightToeBaseEnd
					{
						OFFSET 0.000000 0.000000 7.370709
						CHANNELS 3 Zrotation Yrotation Xrotation
						End Site
						{
							OFFSET 0.000000 0.000000 0.000000
						}
					}
				}
				JOINT RightLegEnd
				{
					OFFSET 0.000000 0.000000 0.000000
					CHANNELS 3 Zrotation Yrotation Xrotation
					End Site
					{
						OFFSET 0.000000 0.000000 0.000000
					}
				}
			}
			JOINT RightUpLegEnd
			{
				OFFSET 0.000000 0.000000 0.000000
				CHANNELS 3 Zrotation Yrotation Xrotation
				End Site
				{
					OFFSET 0.000000 0.000000 0.000000
				}
			}
		}
	}
	JOINT LeftUpLeg
	{
		OFFSET 11.315661 -0.000000 0.000000
		CHANNELS 3 Zrotation Yrotation Xrotation
		JOINT LeftLeg
		{
			OFFSET -0.000000 -38.200325 -0.000000
			CHANNELS 3 Zrotation Yrotation Xrotation
			JOINT LeftFoot
			{
				OFFSET 0.000000 -39.900856 -0.000000
				CHANNELS 3 Zrotation Yrotation Xrotation
				JOINT LeftToeBase
				{
					OFFSET -0.000000 -0.000000 15.261641
					CHANNELS 3 Zrotation Yrotation Xrotation
					JOINT LeftToeBaseEnd
					{
						OFFSET 0.000000 -0.000000 7.539996
						CHANNELS 3 Zrotation Yrotation Xrotation
						End Site
						{
							OFFSET 0.000000 0.000000 0.000000
						}
					}
				}
				JOINT LeftLegEnd
				{
					OFFSET 0.000000 0.000000 0.000000
					CHANNELS 3 Zrotation Yrotation Xrotation
					End Site
					{
						OFFSET 0.000000 0.000000 0.000000
					}
				}
			}
			JOINT LeftUpLegEnd
			{
				OFFSET 0.000000 0.000000 0.000000
				CHANNELS 3 Zrotation Yrotation Xrotation
				End Site
				{
					OFFSET 0.000000 0.000000 0.000000
				}
			}
		}
	}
}
MOTION
Frames: 5
Frame Time: 0.016667
0.053599 88.859886 3.107447 0.490481 0.055862 -6.497332 0.023754 -0.000539 5.886370 -1.012250 0.067046 0.861970 0.478071 -2.416792 3.829567 0.155030 -0.780500 1.929224 2.330515 0.848112 5.016849 0.371683 2.117863 -3.221864 -0.714533 -0.852149 -18.222401 0.000000 0.000000 0.000000 92.418694 -0.394880 9.707912 65.456573 -33.431271 5.091406 -0.130291 12.440493 22.353239 6.882370 13.743960 -6.458578 19.861429 30.097643 62.040974 -8.462701 -12.164348 -20.450144 -6.325801 -8.139122 -14.332924 0.000000 0.000000 0.000000 12.621688 -10.712396 0.231899 8.905269 0.376633 1.323778 8.902945 -0.111869 1.243825 0.000000 0.000000 0.000000 11.194713 -5.446730 -1.239449 7.889823 0.455857 0.481039 7.889222 -0.037052 0.412494 0.000000 0.000000 0.000000 10.912717 2.564455 -1.535874 7.825817 -0.947299 -0.611652 7.824722 0.070320 -0.477096 0.000000 0.000000 0.000000 9.631022 11.185607 -2.805182 7.161172 -1.900893 -1.652070 7.157181 0.085565 -1.400512 0.000000 0.000000 0.000000 0.000000 0.000000 0.000000 0.000000 0.000000 0.000000 -90.370071 0.051974 5.208683 -71.842018 19.306828 -7.574249 -0.664994 -8.642401 40.885647 -0.139946 -25.486511 -15.477552 -20.250540 -29.996990 61.691063 8.807010 12.918287 -21.553112 6.618044 8.635277 -15.110494 0.000000 0.000000 0.000000 -16.168392 -5.636370 -1.918335 -11.569428 0.324957 -1.715407 -11.569072 -0.164917 -1.615128 0.000000 0.000000 0.000000 -15.643335 -0.758781 -1.694552 -11.169063 0.440303 -0.678956 -11.168735 -0.058746 -0.582722 0.000000 0.000000 0.000000 -18.003109 7.607869 -1.025503 -12.703986 -0.874371 0.992852 -12.702737 0.099213 0.772902 0.000000 0.000000 0.000000 -18.852142 16.262062 -0.245862 -13.102126 -1.657223 2.980032 -13.096694 0.281077 2.526406 0.000000 0.000000 0.000000 0.000000 0.000000 0.000000 0.000000 0.000000 0.000000 -1.045058 -10.518975 11.869204 -0.078405 -0.635030 3.758801 -2.197730 -7.901679 18.681496 -0.890004 0.828132 -18.870453 0.000000 0.000000 0.000000 0.000000 0.000000 0.000000 0.000000 0.000000 0.000000 -1.784023 -6.543907 7.474547 0.053202 0.398207 7.545935 3.843466 -1.785134 17.966772 0.194973 -0.390531 -20.817129 0.000000 0.000000 0.000000 0.000000 0.000000 0.000000 0.000000 0.000000 0.000000 
0.118953 88.916771 2.904016 -0.279112 -0.301409 -7.307048 1.308484 -0.184760 6.611500 -0.941513 0.109598 2.706328 0.728799 -1.585806 1.540552 -0.890084 -0.171210 3.087700 1.306188 2.308953 3.162475 0.331278 2.937463 -3.817872 -1.041366 -0.570723 -18.434641 0.000000 0.000000 0.000000 92.983398 -0.473247 9.609906 65.019882 -32.230034 4.061671 -0.140207 13.068178 23.116135 6.699135 13.170989 -6.925882 19.868820 30.100395 62.087269 -8.413382 -12.063652 -20.410557 -6.280245 -8.081350 -14.253648 0.000000 0.000000 0.000000 12.091458 -10.758979 -0.294994 9.086881 0.328448 1.343765 8.873134 -0.112665 1.279328 0.000000 0.000000 0.000000 10.896292 -5.362743 -1.092483 7.741354 0.419812 0.523992 8.111341 -0.054615 0.448018 0.000000 0.000000 0.000000 10.325157 2.573890 -0.812202 7.536071 -0.885624 -0.857281 7.574801 0.070050 -0.630445 0.000000 0.000000 0.000000 9.590302 11.056994 -1.717418 7.205762 -1.640944 -2.441950 6.792194 0.284428 -2.059106 0.000000 0.000000 0.000000 0.000000 0.000000 0.000000 0.000000 0.000000 0.000000 -89.890030 0.130204 6.006320 -71.693352 19.644732 -6.532806 -1.233012 -9.069526 40.452686 2.075093 -23.001165 -15.921775 -20.241394 -29.970182 61.614594 8.868872 12.940841 -21.661472 6.641302 8.661212 -15.146454 0.000000 0.000000 0.000000 -17.312258 -5.472842 -0.134788 -11.020978 0.286265 -1.423622 -11.131412 -0.174977 -1.313954 0.000000 0.000000 0.000000 -16.639109 -0.494901 -0.911178 -10.895654 0.405311 -0.599208 -10.819715 -0.068762 -0.483045 0.000000 0.000000 0.000000 -18.726656 7.534911 -0.738001 -12.386545 -0.866727 0.857612 -12.360434 0.086609 0.667375 0.000000 0.000000 0.000000 -19.884457 15.947536 -1.125568 -12.945994 -1.543720 2.665644 -12.797916 0.351415 2.264068 0.000000 0.000000 0.000000 0.000000 0.000000 0.000000 0.000000 0.000000 0.000000 0.131272 -9.219498 10.972426 -0.048308 -0.636046 6.185127 -2.909210 -8.968410 17.701035 -0.795603 0.743476 -19.046486 0.000000 0.000000 0.000000 0.000000 0.000000 0.000000 0.000000 0.000000 0.000000 -1.528893 -6.307431 7.159317 0.058926 0.369752 8.528335 3.734102 -0.551329 16.983288 0.394668 -0.468882 -20.503733 0.000000 0.000000 0.000000 0.000000 0.000000 0.000000 0.000000 0.000000 0.000000 
0.126932 88.903084 2.889678 -0.304580 -0.361578 -7.370978 1.306305 -0.171409 6.635280 -0.868481 0.092022 2.680024 0.744509 -1.556993 1.642395 -0.881894 -0.147633 3.125932 1.237777 2.232677 3.084640 0.315560 2.852904 -3.819921 -1.053299 -0.608036 -18.406004 0.000000 0.000000 0.000000 92.882668 -0.481398 9.547238 65.037003 -32.526054 4.059734 -0.099006 13.106564 23.104645 6.462965 12.788833 -6.940763 19.853455 30.102774 62.088322 -8.412547 -12.049330 -20.393530 -6.281024 -8.066934 -14.238883 0.000000 0.000000 0.000000 12.111732 -10.766333 -0.322405 9.145549 0.329965 1.336922 8.945196 -0.108486 1.271878 0.000000 0.000000 0.000000 10.944127 -5.364091 -1.087346 7.810851 0.418550 0.519389 8.184986 -0.054201 0.445491 0.000000 0.000000 0.000000 10.404483 2.548795 -0.780031 7.652228 -0.884056 -0.851690 7.678621 0.068401 -0.624500 0.000000 0.000000 0.000000 9.615660 11.022446 -1.625069 7.242655 -1.642614 -2.437850 6.848483 0.279493 -2.042393 0.000000 0.000000 0.000000 0.000000 0.000000 0.000000 0.000000 0.000000 0.000000 -89.838120 0.138169 6.037943 -71.865471 19.782692 -6.616136 -1.239921 -9.130627 40.502140 2.355009 -22.620974 -15.920877 -20.231937 -29.975376 61.623863 8.854343 12.922802 -21.633394 6.629880 8.642008 -15.123788 0.000000 0.000000 0.000000 -17.233919 -5.505873 -0.205434 -11.107887 0.283258 -1.433730 -11.193604 -0.174965 -1.324749 0.000000 0.000000 0.000000 -16.602289 -0.514671 -0.952421 -10.980609 0.403147 -0.605412 -10.907944 -0.070685 -0.490024 0.000000 0.000000 0.000000 -18.726196 7.531171 -0.787349 -12.480138 -0.864080 0.867424 -12.432548 0.087966 0.675180 0.000000 0.000000 0.000000 -19.854033 15.953106 -1.183036 -12.995143 -1.539927 2.675480 -12.819455 0.352520 2.282497 0.000000 0.000000 0.000000 0.000000 0.000000 0.000000 0.000000 0.000000 0.000000 0.148468 -9.179585 11.076603 -0.047964 -0.637561 6.082328 -2.879253 -8.979696 17.735481 -0.804823 0.736888 -19.037918 0.000000 0.000000 0.000000 0.000000 0.000000 0.000000 0.000000 0.000000 0.000000 -1.503425 -6.227902 7.135987 0.057966 0.356736 8.636353 3.761945 -0.524012 16.963448 0.375335 -0.466073 -20.516243 0.000000 0.000000 0.000000 0.000000 0.000000 0.000000 0.000000 0.000000 0.000000 
0.130755 88.897995 2.889714 -0.317101 -0.415894 -7.444669 1.302678 -0.161420 6.636748 -0.832649 0.084966 2.660345 0.756699 -1.547819 1.705566 -0.883889 -0.123826 3.193042 1.158709 2.201616 3.062252 0.314921 2.793681 -3.792343 -1.052065 -0.621655 -18.404863 0.000000 0.000000 0.000000 92.804512 -0.491995 9.493847 65.101662 -32.594696 3.991228 -0.086154 13.130886 23.183369 6.390322 12.370094 -6.995290 19.854292 30.102022 62.078644 -8.421633 -12.067137 -20.418663 -6.288397 -8.070106 -14.256519 0.000000 0.000000 0.000000 12.149067 -10.788054 -0.316539 9.227087 0.333907 1.317872 9.031702 -0.103986 1.252930 0.000000 0.000000 0.000000 10.997193 -5.373786 -1.069808 7.898077 0.419536 0.509298 8.271924 -0.052674 0.437625 0.000000 0.000000 0.000000 10.483137 2.538512 -0.742641 7.756744 -0.884551 -0.841048 7.766870 0.066790 -0.615243 0.000000 0.000000 0.000000 9.644483 11.014244 -1.538896 7.284298 -1.646380 -2.425793 6.905693 0.276254 -2.027972 0.000000 0.000000 0.000000 0.000000 0.000000 0.000000 0.000000 0.000000 0.000000 -89.799301 0.152280 6.030764 -72.046402 19.817940 -6.739501 -1.210904 -9.193119 40.534473 2.498299 -22.283072 -15.873940 -20.233070 -29.978905 61.628273 8.848129 12.910708 -21.628971 6.624032 8.634149 -15.115773 0.000000 0.000000 0.000000 -17.212078 -5.537755 -0.153209 -11.165979 0.283338 -1.431506 -11.229739 -0.173967 -1.325193 0.000000 0.000000 0.000000 -16.610340 -0.531055 -0.894872 -11.035090 0.402690 -0.604527 -10.974912 -0.071395 -0.489944 0.000000 0.000000 0.000000 -18.784060 7.533407 -0.717348 -12.540123 -0.864134 0.873347 -12.490408 0.087673 0.678609 0.000000 0.000000 0.000000 -19.926353 15.956139 -1.141659 -13.048457 -1.537681 2.696141 -12.843941 0.357180 2.305416 0.000000 0.000000 0.000000 0.000000 0.000000 0.000000 0.000000 0.000000 0.000000 0.160905 -9.126258 11.193091 -0.046980 -0.635219 6.019566 -2.871903 -8.989033 17.777866 -0.811845 0.731872 -19.041553 0.000000 0.000000 0.000000 0.000000 0.000000 0.000000 0.000000 0.000000 0.000000 -1.497608 -6.176803 7.135247 0.057887 0.353569 8.744376 3.792170 -0.490104 16.930834 0.365993 -0.464217 -20.509554 0.000000 0.000000 0.000000 0.000000 0.000000 0.000000 0.000000 0.000000 0.000000 
0.137215 88.892990 2.887783 -0.331056 -0.468737 -7.502800 1.302932 -0.156825 6.632822 -0.801238 0.074894 2.620230 0.759918 -1.536754 1.776672 -0.887463 -0.108868 3.241774 1.025893 2.234088 3.093956 0.308797 2.764723 -3.749069 -1.053513 -0.625526 -18.430992 0.000000 0.000000 0.000000 92.781418 -0.496684 9.456635 65.223564 -32.572937 3.932736 -0.082708 13.225968 23.210939 6.295620 11.993375 -6.969219 19.863155 30.100252 62.062859 -8.433483 -12.098966 -20.458717 -6.299926 -8.085384 -14.284779 0.000000 0.000000 0.000000 12.217931 -10.819386 -0.273061 9.311857 0.344513 1.281565 9.120070 -0.093017 1.219727 0.000000 0.000000 0.000000 11.074192 -5.392624 -1.026177 7.988968 0.424162 0.491386 8.360211 -0.048513 0.423738 0.000000 0.000000 0.000000 10.580958 2.529441 -0.679383 7.858654 -0.890633 -0.817529 7.848566 0.061508 -0.596738 0.000000 0.000000 0.000000 9.674167 11.018157 -1.440539 7.335742 -1.665768 -2.371441 6.964626 0.260393 -1.980519 0.000000 0.000000 0.000000 0.000000 0.000000 0.000000 0.000000 0.000000 0.000000 -89.784088 0.154981 6.016181 -72.170425 19.785416 -6.859776 -1.194354 -9.261016 40.603836 2.515352 -22.129532 -15.841042 -20.231905 -29.980988 61.633518 8.850034 12.895394 -21.619389 6.619290 8.621742 -15.109652 0.000000 0.000000 0.000000 -17.201002 -5.561410 -0.076996 -11.182968 0.292439 -1.401289 -11.233844 -0.164357 -1.299899 0.000000 0.000000 0.000000 -16.639814 -0.540239 -0.810314 -11.041027 0.406279 -0.591193 -11.000848 -0.068758 -0.479606 0.000000 0.000000 0.000000 -18.856478 7.534804 -0.612240 -12.567768 -0.869709 0.862514 -12.510252 0.083262 0.669772 0.000000 0.000000 0.000000 -20.036175 15.954641 -1.062150 -13.088400 -1.551268 2.668303 -12.855994 0.347809 2.287164 0.000000 0.000000 0.000000 0.000000 0.000000 0.000000 0.000000 0.000000 0.000000 0.181018 -9.061806 11.291168 -0.046112 -0.632819 5.977908 -2.876433 -8.979097 17.802040 -0.816676 0.725741 -19.041222 0.000000 0.000000 0.000000 0.000000 0.000000 0.000000 0.000000 0.000000 0.000000 -1.509767 -6.146820 7.139596 0.057543 0.348860 8.839049 3.824132 -0.436614 16.894857 0.358531 -0.460373 -20.492138 0.000000 0.000000 0.000000 0.000000 0.000000 0.000000 0.000000 0.000000 0.000000 
